<?xml version="1.0" standalone="no"?>
<!DOCTYPE svg PUBLIC "-//W3C//DTD SVG 20010904//EN"
 "http://www.w3.org/TR/2001/REC-SVG-20010904/DTD/svg10.dtd">
<svg version="1.0" xmlns="http://www.w3.org/2000/svg"
 width="792.000000pt" height="792.000000pt" viewBox="0 0 792.000000 792.000000"
 preserveAspectRatio="xMidYMid meet">
<metadata>
Created by potrace 1.14, written by Peter Selinger 2001-2017
</metadata>
<g transform="translate(0.000000,792.000000) scale(0.100000,-0.100000)"
fill="#000000" stroke="none">
<path d="M2949 6975 c-3 -2 -43 -6 -89 -9 -47 -3 -85 -6 -85 -6 0 -2 -57 -10
-95 -14 -19 -2 -46 -6 -60 -9 -14 -4 -41 -9 -60 -11 -49 -7 -178 -34 -220 -46
-19 -5 -69 -19 -110 -30 -99 -28 -321 -106 -390 -137 -220 -100 -500 -257
-580 -325 -8 -7 -31 -24 -51 -38 -123 -84 -324 -268 -469 -430 -65 -72 -230
-285 -230 -296 0 -3 -14 -24 -31 -45 -17 -21 -27 -39 -22 -39 4 0 3 -4 -3 -8
-29 -20 -156 -264 -239 -457 -20 -46 -113 -328 -119 -359 -2 -12 -10 -43 -16
-71 -20 -85 -45 -224 -54 -296 -17 -133 -19 -182 -20 -389 0 -206 5 -307 18
-393 8 -47 18 -109 21 -134 15 -107 94 -401 135 -498 4 -11 16 -40 25 -65 42
-112 131 -295 209 -425 176 -297 422 -581 691 -796 87 -69 255 -189 275 -197
8 -3 17 -8 20 -12 8 -10 144 -88 154 -88 5 0 12 -4 15 -9 7 -11 183 -97 286
-141 218 -92 509 -178 705 -208 19 -2 58 -9 85 -14 28 -5 73 -12 100 -15 28
-2 79 -8 115 -12 89 -10 538 -10 630 0 41 5 95 11 120 13 63 5 229 32 314 50
39 9 79 17 88 19 194 41 645 208 711 263 9 8 17 11 17 7 0 -4 8 -2 18 6 9 8
35 24 57 34 22 11 42 23 43 28 2 4 8 7 13 7 11 0 269 174 309 208 8 7 35 29
60 50 115 96 214 193 308 301 26 29 54 61 62 70 25 28 130 169 130 176 0 3 8
15 18 26 11 10 25 32 33 47 8 15 17 29 21 32 20 15 223 418 234 465 4 17 10
32 14 35 3 3 23 55 42 115 l36 110 2 -440 c1 -242 1 -447 1 -455 0 -8 0 -44 0
-80 -1 -36 -1 -74 0 -85 0 -11 0 -213 0 -449 -1 -236 1 -431 3 -434 3 -2 402
-4 888 -4 l883 0 3 1735 2 1735 -707 1 c-390 0 -721 0 -738 1 l-30 0 45 29
c70 44 423 270 440 281 147 95 202 130 210 130 6 0 10 5 10 10 0 6 6 10 13 10
7 0 23 9 35 20 12 11 24 20 27 20 3 0 33 18 66 40 33 22 65 40 70 40 5 0 9 3
9 8 0 4 20 18 45 32 25 14 45 27 45 31 0 3 11 11 24 17 26 11 173 104 193 122
7 5 15 10 19 10 4 0 22 11 40 25 18 14 35 25 38 25 3 0 37 21 76 47 l70 47 0
683 c0 644 -1 683 -17 684 -80 3 -1755 0 -1758 -3 -4 -3 -6 -51 -5 -88 1 -8 1
-44 1 -80 -1 -36 -1 -72 0 -80 0 -8 0 -44 0 -80 -1 -36 -1 -72 0 -80 0 -12 1
-738 0 -800 0 -8 0 -44 0 -80 -1 -36 -1 -72 0 -80 0 -8 0 -44 0 -80 -1 -36 -1
-72 0 -80 0 -8 0 -44 0 -80 -1 -36 -1 -74 0 -85 0 -11 0 -155 0 -320 l-1 -300
-172 2 c-95 2 -803 4 -1573 5 l-1400 3 0 -717 -1 -718 663 0 c365 0 663 -4
663 -9 0 -17 -102 -142 -171 -210 -159 -156 -410 -281 -637 -317 -20 -3 -40
-8 -43 -10 -12 -7 -176 -17 -279 -17 -141 0 -227 8 -335 33 -89 20 -96 22
-125 32 -8 3 -37 14 -65 23 -79 28 -224 104 -300 159 -108 78 -166 133 -254
241 -154 191 -247 403 -296 680 -23 128 -22 404 1 506 3 13 7 36 9 50 16 103
66 253 127 379 121 247 323 455 561 577 71 37 137 67 147 68 3 0 19 5 35 12
45 17 135 41 180 49 22 4 49 8 60 10 118 22 419 21 528 -2 12 -2 38 -7 57 -10
19 -3 46 -9 60 -13 30 -10 110 -34 126 -37 36 -7 196 -91 263 -139 77 -54 208
-176 239 -222 8 -13 18 -23 24 -23 5 0 133 80 284 178 151 97 282 182 291 187
52 33 180 115 189 122 25 19 50 34 67 39 9 4 17 10 17 14 0 4 14 13 30 20 17
7 30 16 30 21 0 5 5 9 11 9 7 0 34 16 60 35 27 19 54 35 59 35 6 0 10 3 10 8
0 4 9 12 21 17 45 22 409 261 409 269 0 23 -224 268 -336 366 -88 77 -324 250
-341 250 -3 0 -21 11 -39 25 -18 14 -37 25 -43 25 -5 0 -16 6 -23 13 -12 12
-261 137 -273 137 -3 0 -24 9 -48 19 -123 57 -380 138 -552 176 -94 21 -140
30 -215 40 -24 4 -47 8 -50 10 -3 2 -34 6 -70 10 -36 3 -85 9 -110 12 -25 3
-63 7 -85 10 -56 5 -572 13 -576 8z"/>
</g>
</svg>
